<?xml version="1.0" standalone="no"?>
<!DOCTYPE svg PUBLIC "-//W3C//DTD SVG 20010904//EN"
 "http://www.w3.org/TR/2001/REC-SVG-20010904/DTD/svg10.dtd">
<svg version="1.0" xmlns="http://www.w3.org/2000/svg"
 width="421.000000pt" height="421.000000pt" viewBox="0 0 421.000000 421.000000"
 preserveAspectRatio="xMidYMid meet">

<g transform="translate(0.000000,421.000000) scale(0.100000,-0.100000)"
fill="#000000" stroke="none">
<path d="M1918 3631 c-10 -11 -36 -22 -67 -26 -28 -4 -62 -15 -75 -26 -13 -10
-33 -19 -45 -19 -39 0 -131 -105 -131 -150 0 -5 -16 -30 -35 -56 -24 -31 -35
-56 -35 -80 0 -19 -4 -34 -9 -34 -20 0 -53 -69 -46 -98 4 -19 -2 -48 -15 -81
-15 -40 -19 -65 -14 -100 5 -36 -1 -69 -24 -146 -46 -150 -78 -332 -86 -490
-3 -59 -9 -90 -25 -115 -11 -19 -21 -29 -21 -21 0 21 -40 101 -51 101 -17 0
-9 -28 15 -57 13 -15 26 -38 30 -49 6 -19 -8 -121 -42 -324 -10 -59 11 -242
38 -333 26 -88 99 -234 181 -364 146 -231 213 -285 415 -334 113 -27 254 -29
343 -5 121 33 365 174 513 298 67 56 193 208 242 292 24 41 44 65 52 62 8 -3
11 0 8 8 -3 8 11 67 32 132 42 137 90 211 164 254 25 14 44 31 43 36 -8 38
-103 -27 -141 -96 -23 -42 -24 -43 -18 -13 3 18 8 63 12 100 7 72 19 107 34
98 11 -7 11 -7 60 217 50 232 64 331 58 423 -4 60 -11 84 -45 146 -40 71 -41
77 -36 144 l5 70 -51 68 c-57 74 -120 128 -214 183 -34 19 -98 62 -142 94 -87
65 -183 116 -236 127 -18 3 -59 22 -91 41 -46 27 -72 35 -125 40 -48 3 -86 14
-127 35 -54 27 -61 28 -95 17 -35 -11 -42 -10 -99 19 -72 36 -82 37 -104 12z
m45 -600 c228 -54 393 -81 530 -87 139 -5 278 -26 336 -50 32 -13 130 -90 159
-124 7 -8 24 -37 39 -65 25 -47 27 -61 34 -240 5 -104 12 -217 17 -250 20
-125 -1 -270 -63 -442 -74 -203 -168 -338 -254 -364 -33 -10 -48 -9 -100 9
-34 12 -68 19 -75 16 -10 -4 -12 2 -9 20 14 69 -89 108 -327 128 -80 6 -146
12 -148 13 -2 2 11 16 28 33 16 17 30 40 30 52 0 22 0 22 -29 -3 -16 -13 -46
-28 -65 -31 -72 -14 -166 34 -180 90 -10 39 -18 22 -10 -20 3 -21 20 -50 38
-68 l31 -31 -30 6 c-17 4 -73 10 -125 13 -122 8 -201 -11 -229 -56 -10 -17
-22 -26 -27 -21 -5 4 -38 16 -73 26 -122 36 -171 116 -171 279 0 84 4 114 64
454 26 148 50 245 87 355 81 243 134 320 249 362 85 31 127 31 273 -4z m-273
-1523 c5 -7 33 -41 61 -76 50 -61 130 -125 156 -125 7 0 13 -4 13 -9 0 -5 5
-6 10 -3 6 3 16 3 22 -1 7 -5 27 -7 44 -5 18 1 35 -2 39 -8 11 -18 108 -12
181 10 77 24 198 82 229 109 11 10 40 20 67 22 41 3 45 1 33 -12 -7 -8 -25
-40 -41 -70 -37 -72 -85 -121 -164 -165 -107 -60 -188 -74 -230 -40 -20 16
-209 39 -259 30 -33 -5 -49 -2 -91 21 -70 38 -114 107 -138 215 -11 46 -23 92
-27 102 -6 15 -1 17 39 17 25 0 50 -6 56 -12z"/>
<path d="M1594 2622 c-42 -20 -99 -81 -86 -94 4 -4 31 0 59 8 69 20 148 6 223
-40 88 -53 144 -57 156 -9 9 33 -21 63 -109 109 -89 46 -178 56 -243 26z"/>
<path d="M1576 2325 c-77 -27 -148 -107 -120 -135 8 -8 27 0 63 25 68 45 84
46 69 4 -12 -34 -6 -115 10 -131 6 -6 36 -16 68 -24 52 -12 60 -11 95 6 38 20
58 13 43 -12 -5 -8 -1 -8 10 1 27 23 47 69 48 112 0 47 13 42 39 -15 l19 -41
-6 40 c-20 136 -192 222 -338 170z m128 -78 c13 -21 -15 -53 -38 -44 -26 10
-31 38 -11 54 22 16 35 13 49 -10z"/>
<path d="M2300 2310 c-14 -27 6 -62 52 -90 30 -18 30 -18 7 -22 -13 -2 12 -8
56 -12 78 -7 195 -22 245 -32 l25 -4 -24 10 c-41 18 -19 19 64 4 100 -17 105
-17 105 0 0 20 -50 59 -112 90 -61 30 -205 61 -325 71 -77 7 -82 6 -93 -15z"/>
<path d="M2300 2010 c0 -5 22 -10 48 -10 78 0 282 -29 351 -51 35 -10 66 -18
68 -16 2 2 -33 18 -78 36 -63 25 -105 34 -193 41 -144 12 -196 12 -196 0z"/>
<path d="M2008 1273 c7 -3 16 -2 19 1 4 3 -2 6 -13 5 -11 0 -14 -3 -6 -6z"/>
<path d="M2198 1214 c-4 -3 -28 -12 -55 -20 -45 -13 -45 -13 -8 -8 38 5 102
33 79 34 -6 0 -13 -3 -16 -6z"/>
<path d="M3129 1493 c-13 -16 -12 -17 4 -4 16 13 21 21 13 21 -2 0 -10 -8 -17
-17z"/>
<path d="M3063 1463 c9 -2 23 -2 30 0 6 3 -1 5 -18 5 -16 0 -22 -2 -12 -5z"/>
</g>
</svg>
